<svg width="679" height="829" viewBox="0 0 679 829" fill="none" xmlns="http://www.w3.org/2000/svg">
<g opacity="0.46">
<rect x="-1.28171" y="-0.597672" width="174.7" height="174.7" transform="matrix(-0.34202 -0.939693 -0.939693 0.34202 516.85 444.599)" stroke="#155BFF" stroke-width="2"/>
<rect x="-1.28171" y="-0.597672" width="174.7" height="174.7" transform="matrix(-0.34202 -0.939693 -0.939693 0.34202 676.687 668.483)" stroke="#155BFF" stroke-width="2"/>
<rect x="-1.28171" y="-0.597672" width="174.7" height="174.7" transform="matrix(-0.34202 -0.939693 -0.939693 0.34202 495.382 170.352)" stroke="#155BFF" stroke-width="2"/>
<path d="M616.683 507.253L513.386 444.34" stroke="#155BFF" stroke-width="2"/>
<path d="M494.157 170.617L455.467 285.209" stroke="#155BFF" stroke-width="2"/>
<path d="M459.983 566.623L354.961 503.5" stroke="#155BFF" stroke-width="2"/>
<path d="M335.956 225.862L296.079 341.724" stroke="#155BFF" stroke-width="2"/>
<rect x="-1.28171" y="-0.597672" width="174.7" height="174.7" transform="matrix(-0.34202 -0.939693 -0.939693 0.34202 314.85 511.433)" stroke="#155BFF" stroke-width="2"/>
<rect x="-1.28171" y="-0.597672" width="174.7" height="174.7" transform="matrix(-0.34202 -0.939693 -0.939693 0.34202 474.687 735.317)" stroke="#155BFF" stroke-width="2"/>
<rect x="-1.28171" y="-0.597672" width="174.7" height="174.7" transform="matrix(-0.34202 -0.939693 -0.939693 0.34202 293.382 237.186)" stroke="#155BFF" stroke-width="2"/>
<path d="M414.683 574.087L311.386 511.174" stroke="#155BFF" stroke-width="2"/>
<path d="M292.157 237.451L253.467 352.042" stroke="#155BFF" stroke-width="2"/>
<path d="M257.983 633.457L152.961 570.334" stroke="#155BFF" stroke-width="2"/>
<path d="M133.956 292.696L94.079 408.558" stroke="#155BFF" stroke-width="2"/>
</g>
<circle cx="183.195" cy="186.101" r="39.625" transform="rotate(-20.3506 183.195 186.101)" stroke="#155BFF" stroke-width="2" stroke-linecap="round"/>
<path d="M173.383 204.279C175.425 205.044 177.988 205.309 180.792 205.1C183.604 204.892 186.609 204.211 189.513 203.134C192.417 202.057 195.139 200.613 197.407 198.938C199.668 197.267 201.439 195.395 202.488 193.484" stroke="#155BFF" stroke-width="2" stroke-linecap="round"/>
<path d="M169.719 186.789C172.07 185.917 173.27 183.303 172.397 180.952C171.525 178.6 168.911 177.401 166.56 178.273C164.208 179.145 163.009 181.759 163.881 184.11C164.753 186.462 167.367 187.662 169.719 186.789Z" fill="#155BFF" stroke="#155BFF" stroke-width="0.5" stroke-linecap="round"/>
<circle cx="192.282" cy="173.576" r="4.54167" transform="rotate(-20.3506 192.282 173.576)" fill="#155BFF" stroke="#155BFF" stroke-width="0.5" stroke-linecap="round"/>
<circle cx="363.604" cy="675.51" r="39.625" transform="rotate(-19.2577 363.604 675.51)" stroke="#155BFF" stroke-width="2" stroke-linecap="round"/>
<path d="M357.349 682.771C358.624 683.869 360.165 684.612 361.818 684.925C363.47 685.239 365.177 685.112 366.765 684.557C368.353 684.002 369.767 683.039 370.865 681.765C371.963 680.49 372.706 678.949 373.019 677.296" stroke="#155BFF" stroke-width="2" stroke-linecap="round"/>
<rect x="337.525" y="666.304" width="13.125" height="8.83334" rx="4.41667" transform="rotate(-19.2577 337.525 666.304)" fill="#155BFF" stroke="#155BFF" stroke-width="0.25" stroke-linecap="round"/>
<rect x="365.886" y="656.396" width="13.125" height="8.83334" rx="4.41667" transform="rotate(-19.2577 365.886 656.396)" fill="#155BFF" stroke="#155BFF" stroke-width="0.25" stroke-linecap="round"/>
<path d="M160.378 478.309C165.253 490.15 174.631 499.57 186.45 504.496C198.27 509.422 211.562 509.452 223.403 504.577C235.244 499.703 244.664 490.325 249.59 478.505C254.516 466.686 254.546 453.393 249.671 441.552C244.797 429.711 235.419 420.292 223.599 415.365C211.78 410.439 198.488 410.41 186.647 415.284C174.806 420.158 165.386 429.537 160.46 441.356C155.533 453.176 155.504 466.468 160.378 478.309Z" stroke="#155BFF" stroke-width="2" stroke-linecap="round" stroke-linejoin="round"/>
<path d="M183.436 479.26C182.96 479.456 182.538 479.763 182.206 480.156C181.873 480.549 181.639 481.016 181.524 481.518C181.41 482.02 181.417 482.542 181.546 483.041C181.674 483.539 181.921 484 182.264 484.383C186.704 489.348 192.574 492.814 199.066 494.302C205.558 495.791 212.352 495.229 218.511 492.693C224.67 490.158 229.891 485.774 233.454 480.147C237.017 474.52 238.746 467.926 238.404 461.274C238.378 460.76 238.229 460.259 237.969 459.815C237.71 459.37 237.347 458.994 236.912 458.718C236.477 458.443 235.983 458.275 235.47 458.23C234.957 458.186 234.441 458.264 233.964 458.46L183.436 479.26Z" stroke="#155BFF" stroke-width="1.5" stroke-linecap="round" stroke-linejoin="round"/>
<path d="M228.343 443.371C227.011 441.883 225.25 440.844 223.303 440.398C221.356 439.952 219.319 440.121 217.472 440.882C215.625 441.642 214.059 442.956 212.991 444.643C211.922 446.33 211.402 448.308 211.504 450.302" stroke="#155BFF" stroke-width="1.5" stroke-linecap="round" stroke-linejoin="round"/>
<path d="M193.645 457.654C192.313 456.165 190.553 455.127 188.606 454.681C186.659 454.235 184.622 454.404 182.775 455.164C180.928 455.925 179.362 457.239 178.293 458.926C177.225 460.613 176.705 462.59 176.807 464.585" stroke="#155BFF" stroke-width="1.5" stroke-linecap="round" stroke-linejoin="round"/>
</svg>
