<svg width="512" height="916" viewBox="0 0 512 916" fill="none" xmlns="http://www.w3.org/2000/svg">
<g opacity="0.66">
<rect x="-14.881" y="498.693" width="174.7" height="174.7" transform="rotate(-70 -14.881 498.693)" stroke="#155BFF" stroke-width="2"/>
<rect x="-174.718" y="722.577" width="174.7" height="174.7" transform="rotate(-70 -174.718 722.577)" stroke="#155BFF" stroke-width="2"/>
<rect x="6.58658" y="224.446" width="174.7" height="174.7" transform="rotate(-70 6.58658 224.446)" stroke="#155BFF" stroke-width="2"/>
<path d="M8.81134 223.711L47.5014 338.302" stroke="#155BFF" stroke-width="2"/>
<path d="M42.9855 619.717L148.008 556.594" stroke="#155BFF" stroke-width="2"/>
<path d="M167.012 278.956L206.89 394.817" stroke="#155BFF" stroke-width="2"/>
<rect x="185.119" y="605.693" width="174.7" height="174.7" transform="rotate(-70 185.119 605.693)" stroke="#155BFF" stroke-width="2"/>
<rect x="25.2817" y="829.577" width="174.7" height="174.7" transform="rotate(-70 25.2817 829.577)" stroke="#155BFF" stroke-width="2"/>
<rect x="206.587" y="331.446" width="174.7" height="174.7" transform="rotate(-70 206.587 331.446)" stroke="#155BFF" stroke-width="2"/>
<path d="M86.2858 667.347L189.582 604.434" stroke="#155BFF" stroke-width="2"/>
<path d="M208.811 330.711L247.501 445.303" stroke="#155BFF" stroke-width="2"/>
<path d="M242.985 726.717L348.008 663.594" stroke="#155BFF" stroke-width="2"/>
<path d="M367.012 385.956L406.89 501.818" stroke="#155BFF" stroke-width="2"/>
</g>
<circle cx="121.122" cy="172.122" r="39.625" transform="rotate(20.2124 121.122 172.122)" stroke="#155BFF" stroke-width="2" stroke-linecap="round"/>
<path d="M99.4036 186.187C101.444 185.417 104.006 185.146 106.81 185.348C109.623 185.55 112.63 186.223 115.536 187.293C118.443 188.363 121.168 189.8 123.44 191.47C125.706 193.135 127.481 195.003 128.535 196.912" stroke="#155BFF" stroke-width="2" stroke-linecap="round"/>
<path d="M110.436 163.881C112.79 164.747 115.401 163.542 116.267 161.188C117.134 158.834 115.928 156.223 113.574 155.357C111.221 154.49 108.61 155.696 107.743 158.05C106.877 160.404 108.082 163.014 110.436 163.881Z" fill="#155BFF" stroke="#155BFF" stroke-width="0.5" stroke-linecap="round"/>
<circle cx="136.169" cy="168.515" r="4.54167" transform="rotate(20.2124 136.169 168.515)" fill="#155BFF" stroke="#155BFF" stroke-width="0.5" stroke-linecap="round"/>
<circle cx="94.9123" cy="443.912" r="39.625" transform="rotate(19.822 94.9123 443.912)" stroke="#155BFF" stroke-width="2" stroke-linecap="round"/>
<path d="M73.2903 458.125C75.325 457.341 77.8857 457.053 80.6912 457.235C83.505 457.418 86.5166 458.071 89.4302 459.121C92.3437 460.171 95.0792 461.59 97.3626 463.244C99.6393 464.894 101.427 466.75 102.494 468.651" stroke="#155BFF" stroke-width="2" stroke-linecap="round"/>
<path d="M120.92 435.039L105.898 438.748" stroke="#155BFF" stroke-width="2" stroke-linecap="round"/>
<path d="M80.5465 420.486L89.7481 432.927" stroke="#155BFF" stroke-width="2" stroke-linecap="round"/>
<path d="M80.1333 434.289C82.4929 435.139 85.0953 433.916 85.9459 431.556C86.7965 429.197 85.5731 426.594 83.2134 425.744C80.8537 424.893 78.2513 426.116 77.4008 428.476C76.5502 430.836 77.7736 433.438 80.1333 434.289Z" fill="#155BFF" stroke="#155BFF" stroke-width="0.5" stroke-linecap="round"/>
<path d="M112.432 445.931C114.792 446.782 117.394 445.558 118.245 443.199C119.096 440.839 117.872 438.237 115.512 437.386C113.153 436.536 110.55 437.759 109.7 440.119C108.849 442.478 110.073 445.081 112.432 445.931Z" fill="#155BFF" stroke="#155BFF" stroke-width="0.5" stroke-linecap="round"/>
<circle cx="137.619" cy="776.619" r="39.125" transform="rotate(21.1628 137.619 776.619)" stroke="#155BFF" stroke-linecap="round"/>
<path d="M115.699 791.77C117.255 792.015 119.4 792.552 121.911 793.322C124.425 794.092 127.233 795.073 130.053 796.164C132.873 797.256 135.609 798.422 137.987 799.545C140.361 800.667 142.308 801.714 143.624 802.581" stroke="#155BFF" stroke-linecap="round"/>
<path d="M132.247 765.336C132.471 765.422 132.583 765.466 132.623 765.571C132.662 765.676 132.61 765.774 132.506 765.971C132.058 766.821 131.334 767.5 130.446 767.892C129.405 768.352 128.223 768.38 127.162 767.969C126.1 767.558 125.246 766.742 124.786 765.701C124.393 764.813 124.316 763.823 124.556 762.893C124.612 762.678 124.64 762.57 124.739 762.519C124.839 762.468 124.951 762.511 125.175 762.598L128.711 763.967L132.247 765.336Z" fill="#155BFF" stroke="#155BFF" stroke-linecap="round"/>
<path d="M156.261 774.632C156.485 774.719 156.597 774.762 156.636 774.867C156.675 774.972 156.624 775.07 156.52 775.267C156.071 776.117 155.347 776.796 154.459 777.188C153.418 777.648 152.237 777.676 151.175 777.265C150.114 776.854 149.259 776.038 148.799 774.997C148.407 774.109 148.329 773.12 148.569 772.189C148.625 771.974 148.653 771.866 148.753 771.815C148.853 771.764 148.965 771.807 149.189 771.894L152.725 773.263L156.261 774.632Z" fill="#155BFF" stroke="#155BFF" stroke-linecap="round"/>
</svg>
