<svg width="24" height="25" viewBox="0 0 24 25" fill="none" xmlns="http://www.w3.org/2000/svg">
<path fill-rule="evenodd" clip-rule="evenodd" d="M16 2.24018C16 1.27911 15.2209 0.5 14.2598 0.5H1.74018C0.779108 0.5 0 1.27911 0 2.24018V14.7598C0 15.7209 0.779108 16.5 1.74018 16.5H6.25982C7.2209 16.5 7.99998 17.2791 7.99998 18.2402V22.7598C7.99998 23.7209 8.77914 24.5 9.74016 24.5H22.2598C23.2209 24.5 24 23.7209 24 22.7598V10.2402C24 9.27914 23.2209 8.49998 22.2598 8.49998H17.7402C16.7791 8.49998 16 7.7209 16 6.75982V2.24018Z" fill="#262626"/>
</svg>
